<?xml version="1.0"?><svg id="Layer_1" style="enable-background:new 0 0 64 64;" version="1.1" viewBox="0 0 64 64" xml:space="preserve" xmlns="http://www.w3.org/2000/svg" xmlns:xlink="http://www.w3.org/1999/xlink"><style type="text/css">
	.st0{fill:#020203;}
	.st1{opacity:0.4;}
</style><g><g><path class="st0" d="M46.1,55.1H17.9v-9.4C10.5,41.1,6,33.2,6,24.7C6,11.1,17.6,0,32,0s26,11.1,26,24.7c0,8.5-4.5,16.4-11.9,21    V55.1z M22.3,50.6h19.3v-7.5l1.2-0.6c6.6-3.6,10.7-10.4,10.7-17.7c0-11.2-9.7-20.3-21.6-20.3s-21.6,9.1-21.6,20.3    c0,7.3,4.1,14.1,10.7,17.7l1.2,0.6V50.6z"/></g><g class="st1"><path class="st0" d="M46.9,64H17.1c-1.2,0-2.2-1-2.2-2.2c0-1.2,1-2.2,2.2-2.2h29.8c1.2,0,2.2,1,2.2,2.2C49.1,63,48.1,64,46.9,64z"/></g></g></svg>